<svg xmlns="http://www.w3.org/2000/svg" width="132" height="95" fill="none">
    <g clip-path="url(#a)">
        <path fill="#D3D3D3"
            d="m122.229 94.899.145-.292c-1.939-1.144-4.353-2.568-5.613-4.905-1.243-2.303-1.271-5.431-.073-8.163 1.019-2.325 2.892-4.408 5.415-6.024.497-.319 1.02-.62 1.525-.913 1.221-.706 2.484-1.436 3.525-2.472 1.434-1.427 2.519-3.821 1.711-5.954a3.909 3.909 0 0 0-1.258-1.69 3.432 3.432 0 0 0-1.886-.71l-.018.331c.621.036 1.22.261 1.729.65.509.388.909.925 1.153 1.548.751 1.982-.28 4.231-1.636 5.58-1.012 1.007-2.258 1.727-3.462 2.424-.508.294-1.034.598-1.537.92-2.576 1.65-4.49 3.782-5.535 6.167-1.241 2.83-1.208 6.077.085 8.475 1.303 2.416 3.758 3.864 5.73 5.028Z" />
        <path fill="#D3D3D3"
            d="M123.792 65.525c1.47 0 2.661-.631 2.661-1.41 0-.779-1.191-1.41-2.661-1.41-1.469 0-2.661.631-2.661 1.41 0 .779 1.192 1.41 2.661 1.41ZM121.664 74.814c1.469 0 2.66-.63 2.66-1.41 0-.778-1.191-1.41-2.66-1.41-1.47 0-2.661.632-2.661 1.41 0 .78 1.191 1.41 2.661 1.41ZM126.529 76.307c1.47 0 2.661-.63 2.661-1.41 0-.778-1.191-1.41-2.661-1.41-1.469 0-2.661.632-2.661 1.41 0 .78 1.192 1.41 2.661 1.41ZM118.927 84.104c1.469 0 2.661-.631 2.661-1.41 0-.779-1.192-1.41-2.661-1.41-1.47 0-2.661.631-2.661 1.41 0 .779 1.191 1.41 2.661 1.41ZM113.605 84.104c1.47 0 2.661-.631 2.661-1.41 0-.779-1.191-1.41-2.661-1.41s-2.661.631-2.661 1.41c0 .779 1.191 1.41 2.661 1.41Z" />
        <path fill="#FFA5A5"
            d="M89.823 57.806a1.15 1.15 0 0 0 .499-.186c.152-.1.282-.236.38-.398a1.444 1.444 0 0 0 .154-1.11l3.519-2.742-2.097-.881-3.02 2.739a1.262 1.262 0 0 0-.655.622 1.442 1.442 0 0 0-.112.94c.07.318.244.597.489.784.245.187.545.27.843.232Z" />
        <path fill="#FFDE66"
            d="m91.776 56-1.167-2.175.025-.03 4.709-5.85 3.656-6.802 3.175.441.047 1.047-.01.016-5.044 8.273-.005.005L91.776 56Z" />
        <path fill="#E5E5E5" d="m90.793 57.726-6.308 3.895-4.617-8.9 6.308-3.894 4.617 8.899Z" />
        <path fill="#B2B2B2"
            d="m86.002 52.214-3.383 2.089.33.634 3.382-2.089-.329-.634ZM86.857 53.862l-3.382 2.089.329.634 3.382-2.089-.329-.634ZM87.713 55.511 84.33 57.6l.329.634 3.382-2.089-.328-.634Z" />
        <path fill="#FFA5A5" d="M107.335 92.801h-1.796l-.854-7.556h2.65v7.556Z" />
        <path fill="#283033"
            d="M107.793 94.7h-5.79v-.08c0-.652.238-1.277.66-1.738.423-.461.996-.72 1.594-.72h3.536V94.7Z" />
        <path fill="#FFA5A5" d="m91.882 92.737-1.746-.455.777-7.565 2.578.671-1.61 7.35Z" />
        <path fill="#283033"
            d="m91.923 94.7-5.631-1.467.017-.078a2.458 2.458 0 0 1 1.012-1.523 2.095 2.095 0 0 1 1.703-.297l3.44.896-.54 2.47ZM98.86 37.688v-3.297c0-.58.104-1.156.308-1.692a4.472 4.472 0 0 1 .877-1.434c.377-.411.823-.737 1.315-.959a3.756 3.756 0 0 1 1.55-.337c.532 0 1.059.115 1.55.337.492.222.939.548 1.315.959.376.41.674.898.877 1.434.204.536.308 1.111.308 1.692v3.297a.622.622 0 0 1-.16.42.522.522 0 0 1-.384.174h-7.012a.523.523 0 0 1-.384-.174.623.623 0 0 1-.16-.42Z" />
        <path fill="#FFA5A5"
            d="M101.911 38.232c1.639 0 2.969-1.45 2.969-3.24 0-1.789-1.33-3.24-2.969-3.24-1.64 0-2.97 1.451-2.97 3.24 0 1.79 1.33 3.24 2.97 3.24Z" />
        <path fill="#283033"
            d="M97.902 34.655c0-.927.339-1.816.94-2.47.6-.656 1.414-1.025 2.264-1.026h.604c.85.002 1.664.37 2.264 1.025.601.656.939 1.544.94 2.47v.067h-1.278l-.435-1.331-.087 1.33h-.661l-.22-.671-.043.672h-4.288v-.066Z" />
        <path fill="#fff" d="M75.746 36.19H0V0h75.746v36.19Z" />
        <path fill="#D3D3D3" d="M75.746 36.19H0V0h75.746v36.19Zm-75.013-.8h74.28V.8H.733v34.59Z" />
        <path fill="#3F3D56"
            d="M37.904 29.137 24.899 18.509 12.072 28.991l-.293-.427 13.12-10.722L37.842 28.42l12.861-15.356.052-.023L63.73 7.337l.183.496-12.922 5.68-13.086 15.624Z" />
        <path fill="#F4CA33"
            d="M11.925 30.38c.811 0 1.47-.717 1.47-1.602 0-.885-.659-1.603-1.47-1.603-.81 0-1.468.718-1.468 1.603s.657 1.602 1.468 1.602ZM24.9 19.965c.81 0 1.468-.718 1.468-1.603s-.658-1.602-1.469-1.602-1.469.717-1.469 1.602c0 .885.658 1.603 1.47 1.603ZM37.873 30.38c.811 0 1.469-.717 1.469-1.602 0-.885-.658-1.603-1.47-1.603-.81 0-1.468.718-1.468 1.603s.658 1.602 1.469 1.602ZM50.847 14.89c.81 0 1.468-.717 1.468-1.602 0-.885-.657-1.603-1.468-1.603-.812 0-1.47.718-1.47 1.603s.658 1.602 1.47 1.602ZM63.82 9.015c.812 0 1.47-.718 1.47-1.603s-.658-1.602-1.47-1.602c-.81 0-1.468.717-1.468 1.602 0 .885.657 1.603 1.468 1.603Z" />
        <path fill="#283033"
            d="M131.848 95H73.917a.146.146 0 0 1-.108-.049.174.174 0 0 1-.044-.117c0-.044.016-.086.044-.117a.146.146 0 0 1 .108-.049h57.931c.04 0 .079.018.107.049a.172.172 0 0 1 .045.117.172.172 0 0 1-.045.117.145.145 0 0 1-.107.049Z" />
        <path fill="#F4CA33"
            d="m103.642 52.09-7.56-.314-.422-5.397c-.326-.987-.332-1.835-.016-2.52a2.384 2.384 0 0 1 1.277-1.204l1.654-2.18c.213-.28.48-.505.782-.659.303-.154.633-.232.966-.23l4.298.032c.104-.068.732-.416 1.972.17 1.344.636 1.032 2.844 1.028 2.866l-.003.021-.014.014-2.859 2.626-1.103 6.775Z" />
        <path fill="#283033"
            d="m96.142 51.196-3.576 7.113-2.71 32.362 3.062 1.02 5.423-25.315 6.293 24.597 3.672.1-2.501-28.385-2.184-10.99-7.478-.502Z" />
        <path fill="#FFA5A5"
            d="M105.696 62.712c.132-.13.237-.29.307-.468a1.448 1.448 0 0 0-.036-1.122 1.301 1.301 0 0 0-.335-.444l1.396-4.464-2.175.616-.992 4.145a1.43 1.43 0 0 0-.201.922c.039.324.185.622.411.836.226.214.517.33.816.326.3-.003.587-.127.809-.347Z" />
        <path fill="#FFDE66"
            d="m106.32 60.002-2.11-1.026.709-7.788-.659-7.853 2.816-1.659.597.822.001.018.316 9.93-.001.008-1.669 7.548Z" />
    </g>
    <defs>
        <clipPath id="a">
            <path fill="#fff" d="M0 0h132v95H0z" />
        </clipPath>
    </defs>
</svg>