<svg xmlns="http://www.w3.org/2000/svg" width="130" height="85" fill="none">
    <g clip-path="url(#a)">
        <path fill="#3F3D56"
            d="M-14.818 84.998h138.133a.166.166 0 0 0 .13-.07.276.276 0 0 0 .054-.166.277.277 0 0 0-.054-.166.166.166 0 0 0-.13-.07H-14.818a.167.167 0 0 0-.13.07.274.274 0 0 0-.053.166c0 .063.019.123.053.167.035.044.081.07.13.07Z" />
        <path fill="#D3D3D3"
            d="M95.068 11.424c-.64 0-1.158-.526-1.158-1.175 0-.65.519-1.176 1.158-1.176.639 0 1.157.527 1.157 1.176 0 .649-.518 1.175-1.157 1.175ZM99.68 11.424c-.64 0-1.157-.526-1.157-1.175 0-.65.518-1.176 1.157-1.176s1.157.527 1.157 1.176c0 .649-.518 1.175-1.157 1.175ZM104.292 11.424a1.166 1.166 0 0 1-1.157-1.175c0-.65.518-1.176 1.157-1.176.64 0 1.158.527 1.158 1.176 0 .649-.518 1.175-1.158 1.175ZM108.912 11.424a1.166 1.166 0 0 1-1.157-1.175c0-.65.518-1.176 1.157-1.176s1.157.527 1.157 1.176c0 .649-.518 1.175-1.157 1.175ZM95.068 16.33c-.64 0-1.158-.525-1.158-1.174 0-.65.519-1.176 1.158-1.176.639 0 1.157.526 1.157 1.176 0 .649-.518 1.175-1.157 1.175ZM99.68 16.33c-.64 0-1.157-.525-1.157-1.174 0-.65.518-1.176 1.157-1.176s1.157.526 1.157 1.176c0 .649-.518 1.175-1.157 1.175ZM104.292 16.33a1.166 1.166 0 0 1-1.157-1.174c0-.65.518-1.176 1.157-1.176.64 0 1.158.526 1.158 1.176 0 .649-.518 1.175-1.158 1.175ZM108.912 16.33a1.166 1.166 0 0 1-1.157-1.174c0-.65.518-1.176 1.157-1.176s1.157.526 1.157 1.176c0 .649-.518 1.175-1.157 1.175ZM95.068 21.238c-.64 0-1.158-.526-1.158-1.176 0-.649.519-1.175 1.158-1.175.639 0 1.157.526 1.157 1.175 0 .65-.518 1.176-1.157 1.176ZM99.68 21.238c-.64 0-1.157-.526-1.157-1.176 0-.649.518-1.175 1.157-1.175s1.157.526 1.157 1.175c0 .65-.518 1.176-1.157 1.176ZM104.292 21.238a1.166 1.166 0 0 1-1.157-1.176c0-.649.518-1.175 1.157-1.175.64 0 1.158.526 1.158 1.175 0 .65-.518 1.176-1.158 1.176ZM108.912 21.238a1.166 1.166 0 0 1-1.157-1.176c0-.649.518-1.175 1.157-1.175s1.157.526 1.157 1.175c0 .65-.518 1.176-1.157 1.176ZM95.068 26.151c-.64 0-1.158-.526-1.158-1.175s.519-1.175 1.158-1.175c.639 0 1.157.526 1.157 1.175 0 .65-.518 1.175-1.157 1.175ZM99.68 26.151c-.64 0-1.157-.526-1.157-1.175s.518-1.175 1.157-1.175 1.157.526 1.157 1.175c0 .65-.518 1.175-1.157 1.175ZM104.292 26.151a1.166 1.166 0 0 1-1.157-1.175c0-.649.518-1.175 1.157-1.175.64 0 1.158.526 1.158 1.175 0 .65-.518 1.175-1.158 1.175ZM108.912 26.151a1.166 1.166 0 0 1-1.157-1.175c0-.649.518-1.175 1.157-1.175s1.157.526 1.157 1.175c0 .65-.518 1.175-1.157 1.175ZM95.068 31.051c-.64 0-1.158-.526-1.158-1.175 0-.65.519-1.176 1.158-1.176.639 0 1.157.527 1.157 1.176 0 .649-.518 1.175-1.157 1.175ZM99.68 31.051c-.64 0-1.157-.526-1.157-1.175 0-.65.518-1.176 1.157-1.176s1.157.527 1.157 1.176c0 .649-.518 1.175-1.157 1.175ZM104.292 31.051a1.166 1.166 0 0 1-1.157-1.175c0-.65.518-1.176 1.157-1.176.64 0 1.158.527 1.158 1.176 0 .649-.518 1.175-1.158 1.175ZM108.912 31.051a1.166 1.166 0 0 1-1.157-1.175c0-.65.518-1.176 1.157-1.176s1.157.527 1.157 1.176c0 .649-.518 1.175-1.157 1.175Z" />
        <path fill="#F2F2F2"
            d="M95.068 35.958c-.64 0-1.158-.526-1.158-1.175 0-.65.519-1.176 1.158-1.176.639 0 1.157.527 1.157 1.176 0 .649-.518 1.175-1.157 1.175ZM99.68 35.958c-.64 0-1.157-.526-1.157-1.175 0-.65.518-1.176 1.157-1.176s1.157.527 1.157 1.176c0 .649-.518 1.175-1.157 1.175ZM104.292 35.958a1.166 1.166 0 0 1-1.157-1.175c0-.65.518-1.176 1.157-1.176.64 0 1.158.527 1.158 1.176 0 .649-.518 1.175-1.158 1.175ZM108.912 35.958a1.166 1.166 0 0 1-1.157-1.175c0-.65.518-1.176 1.157-1.176s1.157.527 1.157 1.176c0 .649-.518 1.175-1.157 1.175Z" />
        <path fill="#CCC"
            d="M105.246 66.847v.364a2.296 2.296 0 0 1-.656 1.606 2.22 2.22 0 0 1-1.581.666H86.905a2.22 2.22 0 0 1-1.582-.666 2.292 2.292 0 0 1-.655-1.606v-.364a2.277 2.277 0 0 1 .897-1.817s8.853-.204 8.853-.454h8.591c.593 0 1.161.24 1.581.666.419.426.655 1.003.656 1.605Z" />
        <path fill="#CCC" d="M93.658 69.386h2.326v15.267h-2.326V69.386Z" />
        <path fill="#CCC"
            d="M87.037 84.583c0 .255 3.524.099 7.873.099 4.348 0 7.873.156 7.873-.099s-3.525-2.28-7.873-2.28c-4.349 0-7.873 2.025-7.873 2.28Z" />
        <path fill="#A0616A"
            d="M90.233 66.535a1.968 1.968 0 0 1-.33-1.618c.066-.278.19-.537.364-.761.175-.224.396-.406.647-.534l4.93-17.063 3.754 1.867-6.026 16.186c.183.443.2.94.047 1.394a1.956 1.956 0 0 1-.876 1.074 1.906 1.906 0 0 1-1.357.212 1.93 1.93 0 0 1-1.153-.757Z" />
        <path fill="#F4CA33"
            d="m94.726 49.407 4.202 1.155a.848.848 0 0 0 .708-.12.868.868 0 0 0 .373-.623l.508-4.377a2.464 2.464 0 0 0-.243-1.842 2.399 2.399 0 0 0-1.452-1.129 2.361 2.361 0 0 0-1.814.242c-.549.321-.95.85-1.116 1.472l-1.73 4.027a.888.888 0 0 0 .238 1.023c.095.08.207.139.326.172Z" />
        <path fill="#A0616A" d="M89.142 82.79h-2.194l-1.044-5.779h3.238v5.78Z" />
        <path fill="#283033"
            d="M89.703 82.062h-4.32c-.362 0-.72.073-1.054.213a2.75 2.75 0 0 0-.893.606 2.834 2.834 0 0 0-.806 1.977v.092h7.073v-2.888Z" />
        <path fill="#2F2E41"
            d="M86.59 79.692a.795.795 0 0 0 .078-.004l3.036-.224a.798.798 0 0 0 .606-.378.826.826 0 0 0 .075-.718l-4.063-9.272a.645.645 0 0 1 .2-.712.612.612 0 0 1 .231-.117c1.91-.507 6.813-1.858 11.056-3.438 1.818-.677 2.963-1.655 3.403-2.908.58-1.652-.278-3.158-.315-3.221l-.029-.05-3.993.369-4.328.374-9.486 5.167a3.636 3.636 0 0 0-1.691 2.03 3.704 3.704 0 0 0 .113 2.656l4.373 9.961a.814.814 0 0 0 .297.353c.13.086.282.132.438.132Z" />
        <path fill="#A0616A"
            d="M96.187 40.677c-2.427 0-4.394-1.998-4.394-4.464 0-2.465 1.967-4.464 4.394-4.464 2.428 0 4.395 1.999 4.395 4.464 0 2.466-1.967 4.464-4.395 4.464ZM90.388 82.604h-2.194l-1.044-5.779h3.238v5.78Z" />
        <path fill="#283033"
            d="M90.95 81.877h-4.321a2.717 2.717 0 0 0-1.947.819c-.256.26-.459.567-.597.907-.138.339-.21.703-.21 1.07v.09l7.074.001v-2.887ZM87.844 80.236a.795.795 0 0 0 .077-.004l3.036-.225a.798.798 0 0 0 .606-.377.826.826 0 0 0 .076-.718l-4.063-9.272a.645.645 0 0 1 .199-.712.612.612 0 0 1 .231-.117c1.911-.507 6.813-1.858 11.056-3.438 1.818-.677 2.963-1.656 3.403-2.909.581-1.651-.278-3.157-.315-3.22l-.028-.05-3.993.369-4.329.374-9.486 5.166a3.636 3.636 0 0 0-1.69 2.03 3.704 3.704 0 0 0 .112 2.657l4.373 9.96a.814.814 0 0 0 .297.354c.13.086.283.132.438.132Z" />
        <path fill="#283033"
            d="m94.83 43.205 4.651-1.635s2.921 2.279 1.518 7.933a14.202 14.202 0 0 0 .608 8.782c.136.344.293.68.469 1.005 0 0-5.19 6.361-10.02 1.636l1.878-9.178s-2.952-6.09.895-8.543ZM95.638 40.824c.625-.95 1.119-2.27.43-3.174-.68-.893-2.02-.762-3.061-1.157-1.45-.55-2.291-2.28-2.03-3.83.263-1.55 1.488-2.835 2.947-3.36 1.459-.526 3.104-.355 4.533.25 1.759.745 3.267 2.187 3.9 4.013s.295 4.018-1.018 5.421c-1.407 1.505-3.615 1.906-5.658 1.881" />
        <path fill="#283033"
            d="M99.725 32.716c.788.652 1.991.362 2.837-.21.846-.572 1.532-1.386 2.448-1.835 1.614-.79 3.565-.265 5.135.611 1.571.876 2.963 2.086 4.623 2.773 1.659.687 3.776.721 5.032-.577.309.91.334 1.895.072 2.82a4.68 4.68 0 0 1-1.536 2.349 4.551 4.551 0 0 1-5.284.352c-1.817-1.125-2.822-3.483-4.861-4.104-1.128-.344-2.339-.067-3.48.232-1.14.3-2.329.624-3.48.369-1.151-.255-2.227-1.306-2.08-2.493l.574-.287Z" />
        <path fill="#F4CA33"
            d="M85.42 74.77a30.92 30.92 0 0 0 0-9.264.784.784 0 0 0-.261-.469.763.763 0 0 0-.498-.186h-7.134a.752.752 0 0 0-.6.295.792.792 0 0 0-.145.674c.667 2.839.667 5.798 0 8.637a.795.795 0 0 0 .41.892.75.75 0 0 0 .335.077h7.134a.763.763 0 0 0 .498-.186.785.785 0 0 0 .26-.47Z" />
        <path fill="#fff"
            d="M79.724 69.34h3.744a.533.533 0 0 0 .38-.16.55.55 0 0 0 .157-.385v-.213a.55.55 0 0 0-.157-.385.533.533 0 0 0-.38-.16h-3.744a.534.534 0 0 0-.38.16.55.55 0 0 0-.157.385v.213a.55.55 0 0 0 .158.386c.1.102.237.16.38.16ZM79.724 71.584h3.744a.533.533 0 0 0 .38-.16.55.55 0 0 0 .157-.385v-.213a.55.55 0 0 0-.157-.385.533.533 0 0 0-.38-.16h-3.744a.533.533 0 0 0-.38.16.55.55 0 0 0-.157.385v.213a.55.55 0 0 0 .158.385c.1.103.237.16.38.16Z" />
        <path fill="#A0616A"
            d="M83.547 65.723a1.98 1.98 0 0 1 .08-1.65c.13-.252.315-.472.539-.645a1.91 1.91 0 0 1 .757-.352l8.971-15.272 3.176 2.761-9.817 14.144c.069.475-.037.96-.297 1.361-.26.402-.655.693-1.112.818a1.906 1.906 0 0 1-1.366-.14 1.952 1.952 0 0 1-.93-1.025Z" />
        <path fill="#283033"
            d="m92.105 50.278 3.785 2.185a.854.854 0 0 0 1.23-.444l1.568-4.11c.31-.562.388-1.225.217-1.845a2.425 2.425 0 0 0-1.128-1.462 2.36 2.36 0 0 0-1.816-.226 2.4 2.4 0 0 0-1.442 1.142l-2.667 3.46a.882.882 0 0 0 .253 1.3Z" />
        <path fill="#3F3D56"
            d="M51.845 55.65h72.647c.309 0 .605.124.823.346a1.192 1.192 0 0 1 0 1.67 1.154 1.154 0 0 1-.823.347h-2.057V83.73c0 .313-.123.614-.341.835a1.154 1.154 0 0 1-1.645 0 1.191 1.191 0 0 1-.34-.835V60.283l-13.04 24.005c-.154.27-.408.468-.706.548-.297.081-.614.038-.881-.118a1.179 1.179 0 0 1-.542-.716 1.196 1.196 0 0 1 .115-.896l13.63-25.093H56.408v.015L70.03 83.106c.154.272.196.594.116.897a1.18 1.18 0 0 1-.542.717c-.267.157-.584.2-.882.118a1.166 1.166 0 0 1-.706-.55l-11.608-21.37V83.73c0 .313-.123.614-.34.835a1.154 1.154 0 0 1-1.646 0 1.191 1.191 0 0 1-.34-.835V58.636l-.339-.623h-1.898c-.308 0-.604-.125-.822-.346a1.19 1.19 0 0 1 0-1.671c.218-.222.514-.346.822-.346Z" />
        <path fill="#CCC"
            d="M81.9 54.914h14.136c.346 0 .626.284.626.636 0 .351-.28.636-.626.636H81.9a.631.631 0 0 1-.627-.636c0-.352.28-.636.627-.636Z" />
        <path fill="#CCC"
            d="M72.418 56.19h15.925c.309 0 .604-.125.822-.347.218-.221.341-.522.341-.835v-8.906c0-.313-.123-.613-.34-.834a1.156 1.156 0 0 0-.823-.347H72.418c-.308 0-.604.125-.822.346-.218.222-.34.522-.341.835v8.906c0 .313.123.614.341.835.218.222.514.346.822.347Z" />
        <path fill="#fff"
            d="M80.381 51.651a1.082 1.082 0 0 1-1.074-1.09c0-.603.481-1.091 1.074-1.091.593 0 1.074.488 1.074 1.09 0 .603-.481 1.091-1.074 1.091Z" />
        <path fill="#D3D3D3"
            d="M60.258 34.244V2.347c0-.362-.143-.71-.395-.966a1.337 1.337 0 0 0-.951-.4H34.089c-.357 0-.7.144-.952.4a1.38 1.38 0 0 0-.394.966v31.897c0 .363.142.71.394.967.253.256.595.4.952.4h24.823c.357 0 .699-.144.951-.4a1.38 1.38 0 0 0 .395-.967Zm-1.346-32.96c.278 0 .544.113.74.312.196.2.306.47.307.751v31.897c0 .282-.111.553-.307.752a1.04 1.04 0 0 1-.74.312H34.089a1.04 1.04 0 0 1-.74-.312c-.196-.2-.307-.47-.307-.752V2.347c0-.281.11-.552.307-.751.196-.2.462-.311.74-.312h24.823Z" />
        <path fill="#F4CA33"
            d="M45.109 15.632v-6.55a.69.69 0 0 0-.198-.483.669.669 0 0 0-.475-.2h-5.464a.668.668 0 0 0-.476.2.69.69 0 0 0-.197.484v6.549a.69.69 0 0 0 .197.483c.126.128.297.2.476.2h5.464c.178 0 .35-.072.475-.2a.69.69 0 0 0 .198-.483Z" />
        <path fill="#CCC"
            d="M55.733 18.667v-6.55a.69.69 0 0 0-.197-.483.668.668 0 0 0-.476-.2h-5.464a.668.668 0 0 0-.476.2.69.69 0 0 0-.197.483v6.55a.69.69 0 0 0 .197.483c.126.128.297.2.476.2h5.464c.178 0 .35-.072.475-.2a.69.69 0 0 0 .198-.483Z" />
        <path fill="#FF6584"
            d="M47.207 27.93v-6.55a.69.69 0 0 0-.197-.483.669.669 0 0 0-.475-.2H41.07a.668.668 0 0 0-.475.2.69.69 0 0 0-.198.484v6.549a.69.69 0 0 0 .198.483c.126.128.297.2.475.2h5.465c.178 0 .349-.072.475-.2a.69.69 0 0 0 .197-.483Z" />
        <path fill="#D3D3D3"
            d="M5.536 4.301c-.639 0-1.157-.526-1.157-1.175s.518-1.175 1.157-1.175c.64 0 1.157.526 1.157 1.175 0 .65-.518 1.175-1.157 1.175ZM5.536 8.995c-.639 0-1.157-.526-1.157-1.175 0-.65.518-1.176 1.157-1.176.64 0 1.157.526 1.157 1.176 0 .649-.518 1.175-1.157 1.175ZM5.536 13.675c-.639 0-1.157-.527-1.157-1.176 0-.649.518-1.175 1.157-1.175.64 0 1.157.526 1.157 1.175 0 .65-.518 1.176-1.157 1.176ZM5.536 18.361c-.639 0-1.157-.526-1.157-1.175 0-.65.518-1.176 1.157-1.176.64 0 1.157.527 1.157 1.176 0 .649-.518 1.175-1.157 1.175ZM10.367 4.301c-.639 0-1.157-.526-1.157-1.175s.518-1.175 1.157-1.175c.64 0 1.157.526 1.157 1.175 0 .65-.517 1.175-1.157 1.175ZM10.367 8.995c-.639 0-1.157-.526-1.157-1.175 0-.65.518-1.176 1.157-1.176.64 0 1.157.526 1.157 1.176 0 .649-.517 1.175-1.157 1.175ZM10.367 13.675c-.639 0-1.157-.527-1.157-1.176 0-.649.518-1.175 1.157-1.175.64 0 1.157.526 1.157 1.175 0 .65-.517 1.176-1.157 1.176ZM10.367 18.361c-.639 0-1.157-.526-1.157-1.175 0-.65.518-1.176 1.157-1.176.64 0 1.157.527 1.157 1.176 0 .649-.517 1.175-1.157 1.175ZM15.198 4.301a1.166 1.166 0 0 1-1.157-1.175c0-.649.518-1.175 1.157-1.175.64 0 1.158.526 1.158 1.175 0 .65-.519 1.175-1.158 1.175ZM15.198 8.995a1.166 1.166 0 0 1-1.157-1.175c0-.65.518-1.176 1.157-1.176.64 0 1.158.526 1.158 1.176 0 .649-.519 1.175-1.158 1.175ZM15.198 13.675a1.166 1.166 0 0 1-1.157-1.176c0-.649.518-1.175 1.157-1.175.64 0 1.158.526 1.158 1.175 0 .65-.519 1.176-1.158 1.176ZM15.198 18.361a1.166 1.166 0 0 1-1.157-1.175c0-.65.518-1.176 1.157-1.176.64 0 1.158.527 1.158 1.176 0 .649-.519 1.175-1.158 1.175ZM20.03 4.301c-.64 0-1.158-.526-1.158-1.175s.518-1.175 1.157-1.175c.64 0 1.158.526 1.158 1.175 0 .65-.518 1.175-1.158 1.175ZM20.03 8.995c-.64 0-1.158-.526-1.158-1.175 0-.65.518-1.176 1.157-1.176.64 0 1.158.526 1.158 1.176 0 .649-.518 1.175-1.158 1.175ZM20.03 13.675c-.64 0-1.158-.527-1.158-1.176 0-.649.518-1.175 1.157-1.175.64 0 1.158.526 1.158 1.175 0 .65-.518 1.176-1.158 1.176Z" />
        <path fill="#F2F2F2"
            d="M20.03 18.361c-.64 0-1.158-.526-1.158-1.175 0-.65.518-1.176 1.157-1.176.64 0 1.158.527 1.158 1.176 0 .649-.518 1.175-1.158 1.175Z" />
        <path fill="#D3D3D3"
            d="M24.86 4.301c-.639 0-1.157-.526-1.157-1.175s.518-1.175 1.158-1.175c.639 0 1.157.526 1.157 1.175 0 .65-.518 1.175-1.157 1.175ZM24.86 8.995c-.639 0-1.157-.526-1.157-1.175 0-.65.518-1.176 1.158-1.176.639 0 1.157.526 1.157 1.176 0 .649-.518 1.175-1.157 1.175ZM24.86 13.675c-.639 0-1.157-.527-1.157-1.176 0-.649.518-1.175 1.158-1.175.639 0 1.157.526 1.157 1.175 0 .65-.518 1.176-1.157 1.176Z" />
        <path fill="#F2F2F2"
            d="M24.86 18.361c-.639 0-1.157-.526-1.157-1.175 0-.65.518-1.176 1.158-1.176.639 0 1.157.527 1.157 1.176 0 .649-.518 1.175-1.157 1.175Z" />
        <path fill="#D3D3D3"
            d="M29.699 4.301a1.166 1.166 0 0 1-1.157-1.175c0-.649.518-1.175 1.157-1.175s1.157.526 1.157 1.175c0 .65-.518 1.175-1.157 1.175ZM29.699 8.995a1.166 1.166 0 0 1-1.157-1.175c0-.65.518-1.176 1.157-1.176s1.157.526 1.157 1.176c0 .649-.518 1.175-1.157 1.175ZM29.699 13.675a1.166 1.166 0 0 1-1.157-1.176c0-.649.518-1.175 1.157-1.175s1.157.526 1.157 1.175c0 .65-.518 1.176-1.157 1.176ZM29.699 18.361a1.166 1.166 0 0 1-1.157-1.175c0-.65.518-1.176 1.157-1.176s1.157.527 1.157 1.176c0 .649-.518 1.175-1.157 1.175Z" />
        <path fill="#FFA5A5"
            d="M25.024 44.831a2.03 2.03 0 0 0-.115-1.63 1.991 1.991 0 0 0-.532-.638 1.954 1.954 0 0 0-1.002-.404l-4.349-7.742 1.098-1.916-2.733-2.142-2.091 2.95a2.049 2.049 0 0 0 .046 2.42l5.97 7.762a2.033 2.033 0 0 0 .241 1.795c.159.232.363.427.6.572a1.949 1.949 0 0 0 1.02.288 1.954 1.954 0 0 0 1.127-.363c.33-.235.582-.567.72-.952ZM33.521 82.936h2.194l1.043-8.595h-3.237v8.595Z" />
        <path fill="#283033"
            d="M37.272 82.29H33.04v2.705h6.894a2.742 2.742 0 0 0-.78-1.913 2.628 2.628 0 0 0-1.884-.792Z" />
        <path fill="#FFA5A5" d="M15.443 82.936h2.194l1.043-8.595h-3.238v8.595Z" />
        <path fill="#283033"
            d="M19.2 82.29h-4.23v2.705h6.894a2.742 2.742 0 0 0-.78-1.913 2.628 2.628 0 0 0-1.884-.792Z" />
        <path fill="#F4CA33"
            d="m16.785 30.776 4.925 1.901 1.202-3.392a2.06 2.06 0 0 0-.006-1.393 2.021 2.021 0 0 0-.889-1.061c-.415-.239-.9-.32-1.368-.226a1.994 1.994 0 0 0-1.184.732l-2.68 3.44Z" />
        <path fill="#283033"
            d="m33.32 75.97 4.13-.956a.892.892 0 0 0 .539-.375.917.917 0 0 0 .143-.646c-1.657-10.67-3.252-16.92-7.361-24.855-.058-.148-.7-3.151-1.118-5.14a.913.913 0 0 0-.208-.601.887.887 0 0 0-.546-.313l-7.702-1.204a.986.986 0 0 0-.362-.055l-.077.015.001.077c.001.08.08.091.108.096l.103.016c-.117.055-.224.13-.318.22-3.375 4.122-5.13 17.636-7.358 32.566a.826.826 0 0 0 .233.663.883.883 0 0 0 .633.29l4.921.122a.883.883 0 0 0 .593-.21.91.91 0 0 0 .308-.556l3.315-19.456a.727.727 0 0 1 .2-.402.708.708 0 0 1 .831-.13.718.718 0 0 1 .31.322c2.674 5.531 5.167 10.315 7.623 19.859.05.193.16.365.315.487a.877.877 0 0 0 .744.167Z" />
        <path fill="#F4CA33"
            d="M29.309 44.22a.903.903 0 0 0 .373-.644c.63-5.982.191-10.662-1.343-14.31a4.537 4.537 0 0 0-1.191-1.634 4.45 4.45 0 0 0-1.774-.943l-3.981-.204-.02.01a4.688 4.688 0 0 0-2.09 2.079 4.792 4.792 0 0 0-.455 2.935c1.28 3.428 2.353 6.998 1.535 9.877a.945.945 0 0 0 .087.724.884.884 0 0 0 .557.42l7.583 1.832a.875.875 0 0 0 .719-.141Z" />
        <path fill="#FFA5A5"
            d="m31.029 35.64 7.635-6.119a1.872 1.872 0 0 0 1.007.073 1.97 1.97 0 0 0 1.32-.936 2.03 2.03 0 0 0-.018-2.08 1.979 1.979 0 0 0-1.007-.83 1.94 1.94 0 0 0-1.605.126c-.244.134-.457.32-.625.544a2.014 2.014 0 0 0-.393 1.02l-7.601 4.453-1.892-1.106-2.095 2.787 2.937 2.126a1.937 1.937 0 0 0 2.337-.058Z" />
        <path fill="#F4CA33"
            d="m24.823 34.44 4.357-3.008-2.047-2.946a1.998 1.998 0 0 0-1.128-.793 1.97 1.97 0 0 0-1.365.131c-.43.209-.773.567-.966 1.01a2.059 2.059 0 0 0-.088 1.404l1.237 4.203Z" />
        <path fill="#FFA5A5"
            d="M22.73 24.973c-2.427 0-4.394-1.999-4.394-4.464 0-2.466 1.967-4.464 4.395-4.464 2.427 0 4.394 1.998 4.394 4.464 0 2.465-1.967 4.464-4.394 4.464Z" />
        <path fill="#283033"
            d="M24.34 19.846c1.13.785 2.612 1.593 3.766.756.757-.549.996-1.566.689-2.458-.553-1.604-2.07-2.31-3.522-2.852-1.886-.704-3.94-1.264-5.889-.76-1.947.504-3.669 2.42-3.317 4.43.283 1.616 1.784 2.961 1.57 4.589-.214 1.638-2.027 2.5-3.628 2.793-1.601.292-3.393.386-4.544 1.554-1.467 1.49-1.1 4.154.28 5.727 1.382 1.574 3.466 2.287 5.485 2.772 2.676.642 5.57.98 8.112-.087 2.541-1.066 4.519-3.935 3.783-6.626-.311-1.137-1.044-2.097-1.752-3.033-.708-.935-1.425-1.913-1.695-3.06-.225-.956-.058-2.066.566-2.783a.812.812 0 0 0 .106-.943l-.01-.019Z" />
    </g>
    <defs>
        <clipPath id="a">
            <path fill="#fff" d="M130 0H0v85h130z" />
        </clipPath>
    </defs>
</svg>