<svg xmlns="http://www.w3.org/2000/svg" width="137" height="100" fill="none">
    <g clip-path="url(#a)">
        <path fill="#E6E6E6"
            d="M136.155 6.215H48.816a.343.343 0 0 1-.34-.347.344.344 0 0 1 .34-.332h87.339c.191.004.344.16.339.347a.344.344 0 0 1-.339.332ZM64.198 41.128h35.237a.16.16 0 0 1 .162.158V61.33a.16.16 0 0 1-.162.158H64.197v-20.36Z" />
        <path fill="#fff"
            d="M99.394 61.598 64.153 41.283l.092-.307L99.487 61.29a.16.16 0 0 1 .11.2.164.164 0 0 1-.203.107Z" />
        <path fill="#fff"
            d="m64.245 61.642-.092-.308L99.394 41.02a.164.164 0 0 1 .204.108.16.16 0 0 1-.11.2L64.244 61.642Z" />
        <path fill="#E6E6E6"
            d="M95.434 21.078h-27.11a.759.759 0 0 0-.767.75c0 .416.343.752.767.752h27.11a.759.759 0 0 0 .768-.751.759.759 0 0 0-.767-.75ZM99.076 25.766H64.677a.759.759 0 0 0-.767.75c0 .415.343.751.767.751h34.4a.759.759 0 0 0 .766-.75.759.759 0 0 0-.767-.751Z" />
        <path fill="#F4CA33"
            d="M99.076 30.45H64.677a.76.76 0 0 0-.767.75c0 .414.343.75.767.75h34.4a.76.76 0 0 0 .766-.75.76.76 0 0 0-.767-.75Z" />
        <path fill="#E6E6E6"
            d="M131.698 46.27c-.003 5.794-3.746 10.955-9.336 12.871-.118.042-.237.08-.357.116-7.332 2.293-15.175-1.663-17.519-8.835-2.344-7.172 1.699-14.845 9.031-17.138 7.332-2.293 15.175 1.662 17.519 8.835.439 1.342.662 2.742.662 4.15Z" />
        <path fill="#FFA5A5"
            d="M99.07 32.252a1.156 1.156 0 0 0 1.068 1.244c.069.005.138.005.207 0l1.716 3.72 1.159-1.793-1.807-3.258a1.178 1.178 0 0 0-1.35-.961c-.539.083-.95.516-.993 1.048Z" />
        <path fill="#F4CA33"
            d="M115.984 46.264a2.896 2.896 0 0 0-1.546-1.939l-7.84-3.891-.696-1.327-2.81-5.356-.689.2-1.629.474-.037.01 2.699 8.887.62.464 7.015 5.249.229.172a3.012 3.012 0 0 0 3.859-.222 2.842 2.842 0 0 0 .825-2.72Z" />
        <path fill="#F4CA33"
            d="m120.342 56.024-.041-1.464-.119-4.247c.43-2.718.734-3.02-1.338-4.877a.581.581 0 0 1-.381-.27c-.188-.377.265-1.015-.126-1.999l-3.086.173-.766 1.01-3.084 4.065c-.121.2-.231.407-.33.62-1.32 2.804.469 4.295.609 4.551l.854 2.632.471 2.553.152.354.43.154a14.29 14.29 0 0 0 8.416-.022 21.511 21.511 0 0 0-1.661-3.233Z" />
        <path fill="#FFA5A5"
            d="M126.316 66.347a1.139 1.139 0 0 0-.594-1.517 1.191 1.191 0 0 0-.196-.065l-.38-4.065-1.694 1.324.621 3.657a1.158 1.158 0 0 0 .955 1.34 1.185 1.185 0 0 0 1.288-.674Z" />
        <path fill="#F4CA33"
            d="M120.417 46.417a2.952 2.952 0 0 0-1.954-1.251 2.995 2.995 0 0 0-2.575.774 2.847 2.847 0 0 0-.067 4.089h.001l4.479 4.53 1.632 1.652.427 2.93.657 4.508.718.03 1.698.073.038.001.283-6.316.132-2.945-5.469-8.075Z" />
        <path fill="#2F2E41"
            d="M114.296 36.237c-1.091 2.103-.378 4.54 1.646 5.82 2.188 1.386 5.03 1.083 5.949-1.61 1.024-2.997.183-4.283-1.645-5.82-2.143-1.8-4.772-.662-5.95 1.61Z" />
        <path fill="#FFA5A5"
            d="M119.665 40.92c-1.157 1.484-3.324 1.77-4.841.638a3.331 3.331 0 0 1-.655-4.73l.03-.04c1.191-1.457 3.364-1.694 4.854-.53a3.33 3.33 0 0 1 .611 4.662h.001Z" />
        <path fill="#2F2E41"
            d="M113.239 35.897A4.743 4.743 0 0 0 115.231 37c.149-.17.327-.313.525-.426a2.12 2.12 0 0 0-.193.61c.333.676 1.693 1.162 2.993 1.659l1.721-2.972-2.278-1.263c-1.831-1.239-3.987-.71-4.76 1.288ZM121.576 34.63a1.08 1.08 0 0 1 1.003.143 2.2 2.2 0 0 1 .655.779c.279.495.479 1.03.594 1.583.098.48.081 1.06-.358 1.31-.367.208-.892.077-1.229-.202a2.68 2.68 0 0 1-.692-1.052c-.164-.383-.32-.779-.612-1.097l.304.14a2.559 2.559 0 0 1-.133-.885.857.857 0 0 1 .468-.72Z" />
        <path fill="#2F2E41"
            d="m117.638 35.022 2.445 1.355c1.376.763 1.86 2.473 1.08 3.82-1.131 1.951-3.593 2.742-5.686 1.825l2.234-1.93-3.031 1.511-.647-.358c3.25-.578 3.877-3.072 3.605-6.223ZM122.256 37.404c.412.468 1.056.65 1.637.894 2.082.894 3.579 2.735 4 4.921.161.877.14 1.785.394 2.64.252.855.877 1.694 1.773 1.842.607.101 1.215-.128 1.785-.354l.942-.372c-.328-.803-.654-1.607-.981-2.41a12.314 12.314 0 0 0 1.819 2.081l3.377-1.33c-2.772.01-2.299-2.623-2.919-5.264-.341-1.451-3.244-2.434-3.813-3.815-.889-2.164-3.403-3.214-5.616-2.345a4.286 4.286 0 0 0-2.216 1.96c-.569.222-.586 1.09-.182 1.552Z" />
        <path fill="#FFA5A5"
            d="M46.761 62.827a1.463 1.463 0 0 1 .453-2.217l-.791-7.357 2.026-.715.875 8.746a1.469 1.469 0 0 1-.738 1.968 1.537 1.537 0 0 1-1.825-.425Z" />
        <path fill="#3F3D56"
            d="M45.679 35.852s3.29 1.57 3.3 3.417c.01 1.846.283 3.515.026 4.23-.258.714.654 5.905.227 6.42-.426.514.453.777-.01 1.657-.461.88-.666 1.045-.496 1.245.169.2.418 4.015.418 4.015l-2.711.331-2.884-12.31 2.13-9.005Z" />
        <path fill="#FFA5A5"
            d="M30.034 63.575a1.462 1.462 0 0 0-.09-2.259l1.968-7.143-1.886-1.018-2.273 8.501c-.468.68-.283 1.6.411 2.057a1.541 1.541 0 0 0 1.87-.138Z" />
        <path fill="#3F3D56"
            d="M35.45 37.106s-3.501 1.043-3.81 2.865c-.307 1.82-.845 3.428-.706 4.173.139.745-1.598 5.73-1.26 6.305.339.573-.572.697-.257 1.637.314.94.49 1.136.29 1.307-.2.172-1.06 3.9-1.06 3.9l2.623.745 4.832-11.712-.651-9.22Z" />
        <path fill="#FFA5A5" d="M48.897 95.537h2.336l1.11-8.813h-3.446v8.813Z" />
        <path fill="#2F2E41"
            d="M52.013 95.74v-1.55l-.614.038-2.5.145-.578.034-.442 5.188-.024.278h1.659l.053-.276.24-1.255.623 1.255.136.276h4.397a.983.983 0 0 0 .987-.968c.185-.847-3.471-2.68-3.937-3.165Z" />
        <path fill="#FFA5A5" d="m21.538 93.049 2.031 1.127 5.412-7.129-2.998-1.663-4.445 7.665Z" />
        <path fill="#2F2E41"
            d="m24.14 94.731.78-1.346-.55-.264-2.248-1.08-.521-.251-2.56 3.667-.603.862.681.379.76.422 1.03-1.19-.114 1.698 3.592 1.996h.002l.23.127c.476.262 1.078.1 1.347-.365.588-.649-1.666-4.006-1.826-4.655ZM37.31 52.275c-5.176.181-6.996 20.828-5.415 21.203l-7.377 13.45 10.5 4.604 6.904-23.451 1.151 8.63-1.534 13.695 6.787 1.606 4.695-.328C51.8 75.359 48.755 58.14 46.23 51.48l-8.92.794Z" />
        <path fill="#3F3D56"
            d="m34.934 53.722-.034.126c3.308 1.8 5.568 1.415 9.185.325l2.64-.543c.576-.735.107-1.454-.532-2.154l1.583-12.737c-.01-1.65-1.387-2.98-3.073-2.969-.07 0-.139.003-.208.008l-2.378-1.723-3.385.115-2.264 2.446-1.353.473-1.05.367a9.53 9.53 0 0 0-.667.64l1.662 9.68.707 2.893c-.948 1.058-1.47 2.09-.833 3.053Z" />
        <path fill="#D3D3D3"
            d="M15.729 98.276c-2.463-.286-4.662-1.645-5.985-3.698-.85-1.348-1.287-2.948-1.711-4.495-.123-.45-.251-.916-.386-1.365a2.534 2.534 0 0 1 .867-2.749 2.626 2.626 0 0 1 2.876-.29l.1.051.173 3.82c.257-.511.822-1.667 1.27-2.822l.037-.097.086.06c.9.633 1.715 1.374 2.426 2.206 2.54 3.02 3.593 6.981 2.88 10.83l-.022.113-2.611-1.564Z" />
        <path fill="#283033"
            d="M9.484 99.742c0 .143.08.259.179.259H136.82c.099 0 .18-.116.18-.259 0-.143-.081-.26-.18-.26H9.664c-.099 0-.18.116-.18.258v.002Z" />
        <path fill="#2F2E41"
            d="M45.235 31.884h.003a.674.674 0 0 0 .491-.826l-.983-3.645a4.992 4.992 0 0 0-.906-1.8 5.257 5.257 0 0 0-3.363-1.927 5.26 5.26 0 0 0-2.063.11c-2.752.707-3.521 1.598-3.676 6.155-.156 4.557.985 3.65.985 3.65a.67.67 0 0 0 .121.242.706.706 0 0 0 .729.244c3.437-.346 6.918-.661 8.663-2.203Z" />
        <path fill="#FFA5A5"
            d="M37.157 28.034c-.504 1.992.738 4.007 2.774 4.5a3.871 3.871 0 0 0 2.87-.422 3.68 3.68 0 0 0 1.72-2.275c.504-1.992-.74-4.006-2.776-4.497a3.871 3.871 0 0 0-2.863.42 3.68 3.68 0 0 0-1.725 2.274Z" />
        <path fill="#2F2E41"
            d="M46.01 27.403c-.14-.516-.383-1-.717-1.423-.474-1.156-1.218-2.091-2.66-1.524a4.164 4.164 0 0 0-1.62.086l-.747.189a2.308 2.308 0 0 0-.025.006c-2.171.562-3.465 2.74-2.89 4.863l.019.073 1.579-.4.141-1.61.505 1.445.816-.206.07-.812.256.729c1.546.587 3.339.004 5.292-1.342l-.02-.074Z" />
        <path fill="#2F2E41"
            d="M42.385 32.496a.652.652 0 0 1 .023.544.683.683 0 0 1-.592.429l-.586.045-1.206-1.413.398 1.477-2.666.209-1.69-6.265 4.272-1.082-.073.147a2.912 2.912 0 0 0-.284 1.585c.06.55.216 1.085.46 1.584.244.505.537.987.875 1.437.296.4.616.783.958 1.147a.68.68 0 0 1 .11.156Z" />
        <path fill="#3F3D56"
            d="M58.51 2.746a1.372 1.372 0 1 0 0-2.744 1.372 1.372 0 0 0 0 2.744ZM63.248 2.746a1.372 1.372 0 1 0 0-2.744 1.372 1.372 0 0 0 0 2.744ZM67.986 2.746a1.372 1.372 0 1 0 0-2.744 1.372 1.372 0 0 0 0 2.744ZM73.387 2.458a.164.164 0 0 1-.116-.047l-.925-.926a.156.156 0 0 1 0-.222l.925-.925a.165.165 0 0 1 .23-.003.156.156 0 0 1 .002.225l-.814.814.814.815a.156.156 0 0 1-.002.224.163.163 0 0 1-.114.045ZM74.944 2.458a.163.163 0 0 1-.113-.045.156.156 0 0 1-.003-.224l.815-.815-.815-.814a.156.156 0 0 1 .003-.225.165.165 0 0 1 .23.003l.924.925a.156.156 0 0 1 0 .222l-.925.926a.163.163 0 0 1-.116.047ZM123.359.163h-1.721a.351.351 0 0 0-.355.347v1.685c0 .192.159.348.355.348h1.721a.353.353 0 0 0 .357-.348V.51a.353.353 0 0 0-.357-.347ZM119.144.163h-1.721a.351.351 0 0 0-.355.347v1.685c0 .192.159.348.355.348h1.721a.353.353 0 0 0 .357-.348V.51a.353.353 0 0 0-.357-.347ZM127.336.24h-1.721a.35.35 0 0 0-.355.348v1.685a.35.35 0 0 0 .355.348h1.721a.352.352 0 0 0 .356-.348V.588a.352.352 0 0 0-.356-.347ZM101.395.882H87.639c-.24 0-.433.19-.433.424 0 .233.193.423.433.423h13.756a.43.43 0 0 0 .433-.423.43.43 0 0 0-.433-.424Z" />
    </g>
    <defs>
        <clipPath id="a">
            <path fill="#fff" d="M0 0h137v100H0z" />
        </clipPath>
    </defs>
</svg>