<svg xmlns="http://www.w3.org/2000/svg" width="136" height="100" fill="none">
    <g clip-path="url(#a)">
        <path fill="#FFB7B7"
            d="M120.264 18.778a2.455 2.455 0 0 0-1.397-2.953 2.463 2.463 0 0 0-3.099 1.036l-6 5.132.893 4.427 6.173-6.12a2.456 2.456 0 0 0 2.071.04 2.45 2.45 0 0 0 1.359-1.562Z" />
        <path fill="#D3D3D3"
            d="M134.795 78.45c-1.238 7.612-6.811 13.507-12.745 18.658-.829.72-1.659 1.425-2.492 2.116-.006.003-.011.01-.017.013-.04.034-.08.067-.117.1l-.514.425.106.034.334.102-.342-.093c-.034-.01-.069-.017-.103-.027-3.935-1.063-7.949-2.23-11.165-4.72-3.337-2.585-5.635-6.994-4.484-11.056a7.435 7.435 0 0 1 .627-1.531 8.2 8.2 0 0 1 .354-.594 7.968 7.968 0 0 1 7.168-3.679 7.968 7.968 0 0 1 6.715 4.452c-.056-4.476-4.144-7.74-7.978-10.05-3.835-2.308-8.178-4.802-9.384-9.115-.672-2.4-.107-4.871 1.213-6.959a11.636 11.636 0 0 1 7.071-5.065c5.312-1.205 10.878 1.015 15.235 4.286 7.012 5.262 11.924 14.048 10.518 22.703Z" />
        <path fill="#fff"
            d="M123.531 70.038a19.781 19.781 0 0 1 2.976 4.907 17.173 17.173 0 0 1 1.194 4.966c.323 3.503-.342 7.044-1.667 10.286a31.677 31.677 0 0 1-3.982 6.909c-.829.72-1.659 1.425-2.492 2.116-.005.003-.011.01-.017.013-.04.033-.08.067-.117.1l-.514.425.107.034.333.102-.342-.093c-.034-.01-.069-.017-.103-.027a17.515 17.515 0 0 0-7.359-14.299 17.658 17.658 0 0 0-7.663-3.008 8.2 8.2 0 0 1 .354-.594c1.066.165 2.116.425 3.136.775a17.937 17.937 0 0 1 8.985 6.796 18.339 18.339 0 0 1 3.182 9.754c.138-.158.275-.32.408-.478 2.532-3.002 4.698-6.358 5.989-10.085a20.47 20.47 0 0 0 .973-9.873c-.576-3.616-2.427-6.807-4.875-9.484-2.621-2.866-5.768-5.302-9.062-7.343a48.685 48.685 0 0 0-10.773-4.988.349.349 0 0 1-.229-.425.298.298 0 0 1 .125-.19.263.263 0 0 1 .225-.017 49.225 49.225 0 0 1 12.293 5.917c3.278 2.179 6.425 4.739 8.915 7.804Z" />
        <path fill="#3F3D56"
            d="M58.044 13.435a2.88 2.88 0 0 0-2.633-1.762H2.849A2.851 2.851 0 0 0 0 14.523v66.5a2.851 2.851 0 0 0 2.85 2.849h52.563a2.853 2.853 0 0 0 2.849-2.85v-66.5a2.797 2.797 0 0 0-.216-1.087h-.002Zm-.417 67.587a2.22 2.22 0 0 1-2.216 2.217H2.849a2.217 2.217 0 0 1-2.216-2.216v-66.5a2.22 2.22 0 0 1 2.216-2.217h52.563a2.227 2.227 0 0 1 2.141 1.644c.05.187.076.38.076.573l-.002 66.5Z" />
        <path fill="#F4CA33"
            d="M23.12 37.812H11.55a1.426 1.426 0 0 1-1.424-1.425V22.732a1.427 1.427 0 0 1 1.425-1.425h11.57a1.427 1.427 0 0 1 1.425 1.425v13.655a1.426 1.426 0 0 1-1.425 1.425Z" />
        <path fill="#CCC"
            d="M46.964 47.64h-35.78a1.267 1.267 0 0 1 0-2.534h35.78a1.266 1.266 0 0 1 0 2.534ZM46.964 54.291h-35.78a1.266 1.266 0 1 1 0-2.533h35.78a1.267 1.267 0 0 1 0 2.533ZM46.966 60.943h-35.78a1.266 1.266 0 0 1 0-2.534h35.78a1.268 1.268 0 0 1 1.172 1.752 1.266 1.266 0 0 1-1.172.782ZM46.964 67.59h-35.78a1.266 1.266 0 1 1 0-2.533h35.78a1.266 1.266 0 1 1 0 2.533ZM46.964 74.242h-35.78a1.266 1.266 0 1 1 0-2.534h35.78a1.266 1.266 0 1 1 0 2.534Z" />
        <path fill="#F4CA33"
            d="M58.435 24.45c6.751 0 12.224-5.474 12.224-12.225C70.66 5.473 65.186 0 58.435 0c-6.75 0-12.223 5.473-12.223 12.225 0 6.751 5.472 12.224 12.223 12.224Z" />
        <path fill="#fff"
            d="M57.224 16.89c-.275 0-.542-.089-.762-.254l-.014-.01-2.873-2.198a1.275 1.275 0 0 1 .61-2.279 1.278 1.278 0 0 1 .944.253l1.86 1.427 4.398-5.737a1.276 1.276 0 0 1 1.789-.236l-.027.038.028-.038a1.278 1.278 0 0 1 .236 1.79L58.24 16.39a1.277 1.277 0 0 1-1.015.498l-.002.002Z" />
        <path fill="#3F3D56"
            d="M135.775 100.001H52.611a.226.226 0 1 1 0-.452h83.164a.227.227 0 0 1 .226.226.227.227 0 0 1-.226.226Z" />
        <path fill="#283033"
            d="M80.564 8.917a2.825 2.825 0 1 0 0-5.65 2.825 2.825 0 0 0 0 5.65ZM115.368 46.437a1.695 1.695 0 1 0 0-3.39 1.695 1.695 0 0 0 0 3.39ZM65.424 73.002c.936 0 1.695-.81 1.695-1.808 0-.999-.76-1.808-1.695-1.808-.936 0-1.695.81-1.695 1.808s.759 1.808 1.695 1.808ZM99.311 39.43l15.943-17.125-2.151-3.442-19.996 17.022 6.204 3.545Z" />
        <path fill="#2F2E41" d="M95.82 29.035a5.65 5.65 0 1 0 0-11.3 5.65 5.65 0 0 0 0 11.3Z" />
        <path fill="#2F2E41"
            d="M96.273 20.122a11.648 11.648 0 0 1 4.246-2.802c1.026-.388 2.144-.627 3.217-.407 1.073.22 2.087.978 2.387 2.052.245.879-.008 1.825-.388 2.652-.38.827-.887 1.593-1.194 2.451a5.703 5.703 0 0 0-.275 2.739 5.665 5.665 0 0 0 1.039 2.54 5.505 5.505 0 0 0 2.1 1.729c.83.388 1.742.559 2.653.496-1.054.145-2.026.65-3.056.92-1.031.269-2.247.25-3.013-.503-.81-.797-.826-2.093-.787-3.241l.174-5.12c.03-.87.055-1.767-.252-2.58-.308-.812-1.038-1.523-1.892-1.516-.646.006-1.219.406-1.737.8-.519.394-1.068.815-1.712.873-.644.06-1.38-.427-1.331-1.085l-.179.002Z" />
        <path fill="#FFB7B7"
            d="M74.323 61.27a2.27 2.27 0 0 1-1.623-.153c-.505-.25-.901-.678-1.114-1.204a2.349 2.349 0 0 1-.043-1.65c.186-.536.56-.985 1.051-1.261l4.87-5.592 4.12.9-5.794 5.744a2.333 2.333 0 0 1-.591 2.75 2.274 2.274 0 0 1-.876.465Z" />
        <path fill="#283033" d="M90.396 41.485 78.272 56.607l-3.695-1.686 14.25-22.044 1.57 8.608Z" />
        <path fill="#FFB7B7" d="m80.677 87.388-2.937-.044.353 9.718h2.584v-9.674Z" />
        <path fill="#283033"
            d="M81.356 96.385h-4.969c-.84 0-1.645.323-2.239.898a3.015 3.015 0 0 0-.927 2.166v.1h8.135v-3.164ZM99.845 84.63l-3.122 2.047 6.246 7.672 2.116-1.387-5.24-8.331Z" />
        <path fill="#283033"
            d="m105.114 91.864-4.212 2.717a3.217 3.217 0 0 0-.96 4.428l.055.088 6.896-4.448-1.779-2.785Z" />
        <path fill="#3F3D56"
            d="M100.861 54.636S93.852 31.394 91.6 31.08c-2.253-.314-5.882 5.964-5.882 5.964-4.706 5.994-9.558 25.41-9.558 25.41s8.089.505 14.002 3.646 12.891-.159 12.891-.159l-2.192-11.305Z" />
        <path fill="#000"
            d="M100.861 54.636S93.852 31.394 91.6 31.08c-2.253-.314-4.96 6.028-4.96 6.028-2.345 9.675-10.48 25.346-10.48 25.346s8.089.505 14.002 3.646 12.891-.159 12.891-.159l-2.192-11.305Z"
            opacity=".1" />
        <path fill="#2F2E41"
            d="M95.22 47.614v11.749l1.381 17.02 6.902 12.873-3.294 2.355-9.412-12.246-3.722-12.16-5.846 26.918-4.393-.314 3.05-37.32 5.79-10.505 9.544 1.63Z" />
        <path fill="#F4CA33"
            d="M88.091 36.368c-2.195 2.182-.157 4.52-.157 4.52L85.425 46.5l9.88 2.65 3.453-15.334-2.352-2.494c-4.705-.156-4.708-.253-4.708-.253-.824.802-3.607 5.3-3.607 5.3Z" />
        <path fill="#283033"
            d="M99.215 32.342a4.196 4.196 0 0 0-5.9.925c-2.473 3.45-4.76 9.02-1.609 15.967 5.06 11.155 9.462 16.866 11.252 16.865a.713.713 0 0 0 .23-.036c1.102-.374 2.695-2.242 2.983-3.888.103-.589.079-1.41-.624-1.973-2.02-1.618-5.647-6.658-6.778-13.29-.625-3.666.587-7.005 1.714-9.16a4.212 4.212 0 0 0-1.214-5.37l-.054-.04Z" />
        <path fill="#FFB7B7"
            d="M96.02 28.458a4.143 4.143 0 1 0-3.976-7.27 4.143 4.143 0 0 0 3.975 7.27Z" />
        <path fill="#2F2E41"
            d="M88.134 24.513h6.08l.063-.852.312.852h.936l.123-1.69.618 1.69h1.812v-.084a4.39 4.39 0 0 0-1.332-3.135 4.604 4.604 0 0 0-3.211-1.301h-.857a4.604 4.604 0 0 0-3.211 1.3 4.39 4.39 0 0 0-1.333 3.136v.084Z" />
        <path fill="#2F2E41"
            d="m97.15 27.63 2.512-.82V20.67h-4.745l.117.118c1.635 1.643 3.453 7.47 2.116 6.841Z" />
        <path fill="#3F3D56"
            d="m28.957 27.014 2.128 6.035h.084l2.129-6.035h.91l-2.632 7.17h-.897l-2.632-7.17h.91Zm7.236 0v7.17h-.869v-7.17h.869Zm5.66 1.793a1.099 1.099 0 0 0-.51-.827c-.3-.196-.666-.294-1.1-.294-.317 0-.595.052-.833.154a1.33 1.33 0 0 0-.553.424c-.13.18-.196.384-.196.613 0 .19.046.355.137.493.093.135.212.249.357.34.144.088.296.162.455.22.159.056.304.102.437.137l.728.196c.187.049.395.116.623.203.231.086.452.204.662.353a1.8 1.8 0 0 1 .525.567c.138.231.207.515.207.85 0 .388-.102.738-.305 1.051-.2.313-.495.561-.882.746-.385.184-.853.276-1.404.276-.513 0-.958-.083-1.333-.248a2.125 2.125 0 0 1-.882-.694 1.977 1.977 0 0 1-.36-1.032h.895c.023.27.114.495.273.672.161.175.364.306.61.392.247.084.513.126.797.126.332 0 .63-.054.893-.161.264-.11.472-.261.627-.455.154-.196.23-.425.23-.686a.84.84 0 0 0-.199-.581 1.464 1.464 0 0 0-.525-.364 5.508 5.508 0 0 0-.704-.245l-.882-.252c-.56-.161-1.003-.391-1.33-.69-.327-.299-.49-.69-.49-1.172 0-.402.109-.752.326-1.05.219-.302.513-.535.882-.7a2.98 2.98 0 0 1 1.242-.253c.462 0 .873.083 1.233.249.359.163.644.387.854.672.212.285.324.608.336.97h-.84Zm2.66 5.376h-.91l2.632-7.169h.896l2.633 7.17h-.91l-2.143-6.036h-.056l-2.142 6.035Zm.336-2.8h3.668v.77H44.85v-.77Z" />
    </g>
    <defs>
        <clipPath id="a">
            <path fill="#fff" d="M0 0h136v100H0z" />
        </clipPath>
    </defs>
</svg>