<svg xmlns="http://www.w3.org/2000/svg" width="34" height="34" fill="none">
    <rect width="33" height="33" x=".5" y=".5" stroke="#283033" rx="11.5" />
    <path fill="#283033"
        d="M17.72 10c.787.001 1.186.005 1.531.016l.136.004.499.021c.745.035 1.253.153 1.699.326a3.41 3.41 0 0 1 1.24.807c.389.39.629.78.808 1.24.172.446.29.955.325 1.7.008.187.015.341.02.498l.005.136c.01.345.015.745.016 1.532v.522L24 17V17.719a55.081 55.081 0 0 1-.016 1.532l-.005.136c-.005.157-.012.312-.021.499-.034.745-.153 1.253-.325 1.699a3.418 3.418 0 0 1-.808 1.24 3.44 3.44 0 0 1-1.24.808c-.446.172-.954.29-1.7.325a52.7 52.7 0 0 1-.498.02l-.136.005c-.345.01-.744.015-1.532.016l-.522.001h-.917a55.081 55.081 0 0 1-1.532-.016l-.136-.005a45.423 45.423 0 0 1-.498-.021c-.745-.034-1.253-.153-1.7-.325a3.421 3.421 0 0 1-1.24-.808 3.432 3.432 0 0 1-.807-1.24c-.173-.446-.29-.954-.326-1.7a52.563 52.563 0 0 1-.02-.498l-.005-.136c-.01-.345-.014-.744-.016-1.532V16.28c.001-.788.005-1.187.016-1.532l.004-.136.021-.498c.035-.746.153-1.253.326-1.7.178-.46.418-.85.807-1.24.39-.389.78-.628 1.24-.807.447-.173.954-.29 1.7-.326a52.7 52.7 0 0 1 .498-.02l.136-.005c.345-.01.745-.014 1.532-.016h1.44ZM17 13.5a3.5 3.5 0 1 0 0 7 3.5 3.5 0 0 0 0-7Zm0 1.4a2.1 2.1 0 1 1 0 4.2 2.1 2.1 0 0 1 0-4.2Zm3.675-2.45a.876.876 0 1 0 0 1.75.876.876 0 0 0 0-1.75Z" />
</svg>