<svg xmlns="http://www.w3.org/2000/svg" width="34" height="34" fill="none">
    <rect width="34" height="34" fill="#560F20" rx="12" />
    <path fill="#fff"
        d="M17.925 8a70.94 70.94 0 0 1 1.97.02l.174.006c.202.007.401.016.641.027.958.045 1.611.196 2.185.419a4.385 4.385 0 0 1 1.594 1.038c.5.5.809 1.003 1.038 1.595.222.572.374 1.226.419 2.184.01.24.02.44.026.641l.006.175c.013.443.02.957.021 1.97v.67L26 17v.924a70.971 70.971 0 0 1-.02 1.97l-.007.175c-.007.202-.016.401-.027.641-.044.958-.197 1.611-.419 2.185a4.396 4.396 0 0 1-1.038 1.595c-.5.499-1.003.808-1.594 1.038-.574.222-1.227.373-2.185.418-.24.01-.44.02-.64.026l-.175.006c-.444.013-.957.02-1.97.021l-.671.001h-1.179a70.977 70.977 0 0 1-1.97-.02l-.175-.007a57.89 57.89 0 0 1-.64-.027c-.958-.044-1.611-.197-2.185-.419A4.4 4.4 0 0 1 9.51 24.49c-.5-.5-.809-1.003-1.038-1.594-.223-.574-.374-1.227-.419-2.185-.01-.24-.019-.439-.026-.64l-.006-.176c-.013-.443-.019-.956-.02-1.97L8 16.075c.002-1.012.007-1.526.02-1.97l.006-.174c.007-.202.016-.4.027-.64.045-.96.196-1.612.419-2.185A4.392 4.392 0 0 1 9.51 9.51c.5-.5 1.003-.809 1.595-1.038.573-.223 1.226-.374 2.184-.419.24-.01.44-.019.641-.026l.175-.006c.443-.013.957-.019 1.97-.02L17.925 8ZM17 12.5a4.5 4.5 0 1 0 0 9 4.5 4.5 0 0 0 0-9Zm0 1.8a2.7 2.7 0 1 1 0 5.4 2.7 2.7 0 0 1 0-5.4Zm4.725-3.15a1.126 1.126 0 1 0 .001 2.25 1.126 1.126 0 0 0-.001-2.25Z" />
</svg>