<svg xmlns="http://www.w3.org/2000/svg" width="100" height="20" fill="none">
    <mask id="a" width="31" height="20" x="0" y="0" maskUnits="userSpaceOnUse"
        style="mask-type:alpha">
        <path fill="#283033" fill-rule="evenodd"
            d="m21.041 4.248-4.423-1.642v1.856c.046.052.11.108.196.167.218.148.543.288.961.408.834.24 1.995.39 3.285.39s2.45-.15 3.284-.39c.418-.12.744-.26.961-.408.04-.027.075-.053.106-.08V2.72l-3.955 1.526a.585.585 0 0 1-.415.002ZM14.69 6.3a8.26 8.26 0 0 1 1.877-1.649c.6.55 2.385.948 4.494.948 2.023 0 3.748-.367 4.415-.882a8.269 8.269 0 0 1 1.877 1.707l-2.868 2.363a4.526 4.526 0 0 0-2.597-1.592 4.492 4.492 0 0 0-3.009.421 4.562 4.562 0 0 0-2.07 2.246c-.18.421-.295.864-.345 1.314.01.285.006.572-.014.858a4.581 4.581 0 0 0 1.913 3.395 4.5 4.5 0 0 0 5.71-.407 4.57 4.57 0 0 0 .855-1.105h-3.311v-3.454H31v9.482h-3.418V16.64a8.296 8.296 0 0 1-.979 1.109 8.172 8.172 0 0 1-10.37.738 8.274 8.274 0 0 1-1.718-1.64 8.21 8.21 0 0 1-.921.935 8.187 8.187 0 0 1-5.149 2.001 8.18 8.18 0 0 1-5.243-1.732 8.329 8.329 0 0 1-2.985-4.687 8.398 8.398 0 0 1 .613-5.54A8.275 8.275 0 0 1 4.767 3.92l1.558 3.39a4.556 4.556 0 0 0-2.167 2.15 4.625 4.625 0 0 0-.338 3.05 4.587 4.587 0 0 0 1.643 2.581 4.503 4.503 0 0 0 5.722-.148 4.592 4.592 0 0 0 1.555-2.973 8.435 8.435 0 0 1 .015-.858 4.619 4.619 0 0 0-.551-1.86A4.55 4.55 0 0 0 9.93 7.217l1.385-3.468a8.241 8.241 0 0 1 3.374 2.55ZM21.141.013a.417.417 0 0 1 .214.002l4.97 1.344c.364.098.416.578.123.768v.809a.31.31 0 0 1 .084.442c-.053.073-.097.166-.065.25l.17.449a.17.17 0 0 1-.158.231h-.387a.17.17 0 0 1-.158-.231l.168-.446c.032-.085-.013-.178-.066-.252a.31.31 0 0 1 .074-.437v-.675l-4.714 1.82a.418.418 0 0 1-.297.001l-5.164-1.917c-.389-.144-.36-.709.04-.813L21.14.013Z"
            clip-rule="evenodd" />
    </mask>
    <g mask="url(#a)">
        <path fill="#fff" d="M0-1h31v21H0z" />
    </g>
    <path fill="#fff"
        d="M48.9 2.955h3.51v9.382c0 1.084-.259 2.029-.775 2.834-.516.8-1.236 1.42-2.16 1.86-.922.436-1.995.654-3.217.654-1.235 0-2.315-.218-3.238-.654-.923-.44-1.64-1.06-2.152-1.86-.512-.805-.767-1.75-.767-2.834V2.955h3.516v9.076c0 .502.108.95.326 1.343.223.393.533.7.93.923.398.222.86.334 1.386.334.525 0 .984-.112 1.377-.334a2.39 2.39 0 0 0 .93-.923c.223-.393.335-.84.335-1.343V2.955Zm9.186 8.323V17.5h-3.473V6.59h3.302v2.004h.12a3.062 3.062 0 0 1 1.237-1.57c.582-.383 1.276-.575 2.08-.575.768 0 1.433.173 1.996.518.569.341 1.009.82 1.321 1.435.318.61.474 1.326.47 2.145V17.5h-3.474v-6.271c.005-.606-.149-1.08-.462-1.42-.307-.342-.736-.512-1.285-.512a1.9 1.9 0 0 0-.966.241 1.6 1.6 0 0 0-.64.675c-.146.294-.222.649-.226 1.065Zm9.202 6.222V6.59h3.473V17.5h-3.473Zm1.74-12.18c-.487 0-.906-.161-1.257-.483a1.555 1.555 0 0 1-.525-1.18c0-.454.175-.842.525-1.164.35-.327.77-.49 1.257-.49.493 0 .912.163 1.257.49.35.322.526.71.526 1.165 0 .459-.175.852-.526 1.179a1.778 1.778 0 0 1-1.257.483Z" />
    <path fill="#283033"
        d="M82.517 7.706a2.554 2.554 0 0 0-.355-.788 2.271 2.271 0 0 0-.575-.59 2.468 2.468 0 0 0-.781-.362 3.455 3.455 0 0 0-.966-.128c-.706 0-1.316.17-1.833.511-.51.341-.906.838-1.186 1.492-.279.649-.419 1.437-.419 2.365 0 .933.135 1.728.405 2.386.27.659.66 1.16 1.172 1.506.511.346 1.132.518 1.86.518.645 0 1.19-.104 1.634-.312.45-.213.791-.514 1.023-.902.232-.388.348-.845.348-1.37l.654.077H79.96V9.545h6.27v1.925c0 1.302-.276 2.417-.83 3.345a5.526 5.526 0 0 1-2.273 2.138c-.961.497-2.067.746-3.317.746-1.387 0-2.606-.3-3.657-.902-1.051-.602-1.87-1.459-2.458-2.571-.587-1.118-.88-2.443-.88-3.977 0-1.194.177-2.252.532-3.175.356-.928.85-1.714 1.485-2.358a6.415 6.415 0 0 1 2.216-1.463 7.366 7.366 0 0 1 2.72-.497c.843 0 1.626.12 2.35.362a6.28 6.28 0 0 1 1.933 1.023c.563.44 1.02.963 1.37 1.57.35.605.568 1.27.654 1.995h-3.559Zm10.88 10c-1.147 0-2.131-.234-2.955-.703a4.85 4.85 0 0 1-1.896-1.975c-.44-.847-.661-1.83-.661-2.947 0-1.122.22-2.105.66-2.947a4.793 4.793 0 0 1 1.897-1.975c.824-.473 1.809-.71 2.954-.71 1.146 0 2.129.237 2.948.71a4.737 4.737 0 0 1 1.896 1.975c.445.842.668 1.825.668 2.947 0 1.117-.223 2.1-.668 2.947a4.792 4.792 0 0 1-1.896 1.975c-.82.469-1.802.703-2.948.703Zm.02-2.62c.417 0 .77-.129 1.059-.384.289-.256.509-.611.66-1.066.157-.454.235-.98.235-1.576 0-.606-.078-1.137-.235-1.591-.151-.455-.371-.81-.66-1.066a1.54 1.54 0 0 0-1.058-.383c-.431 0-.796.128-1.094.383-.294.256-.519.611-.675 1.066-.151.454-.227.985-.227 1.59 0 .597.076 1.123.227 1.577.156.455.381.81.675 1.066.298.255.663.383 1.094.383Z" />
</svg>