<svg xmlns="http://www.w3.org/2000/svg" width="133" height="23" fill="none">
    <path fill="#283033" fill-rule="evenodd"
        d="m23.756 4.885-4.994-1.888v2.134c.052.06.124.125.221.192.246.17.614.331 1.086.47.941.275 2.252.449 3.708.449 1.456 0 2.767-.174 3.708-.45.472-.138.84-.299 1.086-.469a1.44 1.44 0 0 0 .118-.09V3.126l-4.465 1.755a.65.65 0 0 1-.468.003Zm-7.172 2.36a9.383 9.383 0 0 1 2.12-1.898c.677.632 2.693 1.09 5.073 1.09 2.284 0 4.232-.421 4.985-1.014a9.398 9.398 0 0 1 2.12 1.964l-3.239 2.716a5.097 5.097 0 0 0-2.932-1.83 4.99 4.99 0 0 0-3.397.485 5.21 5.21 0 0 0-2.337 2.582 5.392 5.392 0 0 0-.39 1.51c.012.33.007.659-.015.988.026.344.085.687.177 1.024a5.268 5.268 0 0 0 1.982 2.88 5.012 5.012 0 0 0 3.304.945 5.049 5.049 0 0 0 3.142-1.413c.387-.373.711-.802.966-1.27h-3.738v-3.972H35v10.904h-3.86v-3.802a9.492 9.492 0 0 1-1.104 1.276 9.173 9.173 0 0 1-5.707 2.566 9.104 9.104 0 0 1-6-1.717 9.418 9.418 0 0 1-1.941-1.887 9.472 9.472 0 0 1-1.04 1.077 9.148 9.148 0 0 1-5.813 2.3 9.124 9.124 0 0 1-5.92-1.99 9.6 9.6 0 0 1-3.37-5.392 9.821 9.821 0 0 1 .693-6.37 9.43 9.43 0 0 1 4.444-4.49l1.76 3.9a5.191 5.191 0 0 0-2.448 2.472 5.408 5.408 0 0 0-.381 3.508 5.286 5.286 0 0 0 1.855 2.968 5.023 5.023 0 0 0 3.26 1.096 5.035 5.035 0 0 0 3.2-1.267 5.305 5.305 0 0 0 1.756-3.418 9.81 9.81 0 0 1 .016-.987 5.383 5.383 0 0 0-.622-2.14 5.17 5.17 0 0 0-2.566-2.34l1.562-3.987a9.324 9.324 0 0 1 3.81 2.932ZM23.87.014a.463.463 0 0 1 .242.002l5.61 1.545c.411.114.47.666.14.884v.93a.362.362 0 0 1 .095.509c-.06.084-.11.19-.074.287l.191.517c.048.128-.044.266-.178.266h-.437c-.133 0-.225-.138-.178-.266l.19-.514c.037-.097-.014-.205-.074-.289a.362.362 0 0 1 .083-.503v-.776L24.156 4.7a.464.464 0 0 1-.334.003l-5.831-2.206c-.439-.165-.407-.814.045-.934L23.87.015Z"
        clip-rule="evenodd" />
    <path fill="#FFFFFF"
        d="M65.332 1.136h3.083V14.53c0 1.425-.335 2.688-1.005 3.788-.669 1.094-1.61 1.956-2.823 2.585-1.213.623-2.635.935-4.266.935-1.624 0-3.043-.312-4.256-.935-1.213-.63-2.154-1.491-2.823-2.585-.67-1.1-1.005-2.363-1.005-3.788V1.136h3.073v13.145c0 .922.202 1.74.606 2.456.411.716.991 1.28 1.74 1.69.75.405 1.638.607 2.665.607 1.034 0 1.926-.202 2.675-.606a4.253 4.253 0 0 0 1.73-1.69c.404-.717.606-1.535.606-2.457V1.136Zm10.284 11.296V21.5h-2.973V6.227h2.854v2.486h.189a4.366 4.366 0 0 1 1.65-1.949c.756-.49 1.707-.736 2.854-.736 1.04 0 1.952.22 2.734.657.783.43 1.39 1.074 1.82 1.929.43.855.646 1.912.646 3.171V21.5h-2.973v-9.357c0-1.107-.288-1.972-.865-2.595-.577-.63-1.369-.944-2.376-.944-.69 0-1.303.149-1.84.447-.53.298-.95.736-1.263 1.313-.304.57-.457 1.26-.457 2.068ZM89.377 21.5V6.227h2.974V21.5h-2.974ZM90.88 3.87a1.89 1.89 0 0 1-1.333-.516C89.182 3.002 89 2.584 89 2.1c0-.49.182-.908.546-1.253A1.87 1.87 0 0 1 90.88.321c.517 0 .958.176 1.322.527.372.345.557.762.557 1.253 0 .484-.185.901-.557 1.253a1.855 1.855 0 0 1-1.322.517Z" />
    <path fill="#283033"
        d="M110.37 7.57a6.203 6.203 0 0 0-.776-1.621 4.954 4.954 0 0 0-1.143-1.233 4.8 4.8 0 0 0-1.521-.786 6.124 6.124 0 0 0-1.86-.268c-1.146 0-2.181.295-3.102.885-.921.59-1.651 1.455-2.188 2.595-.53 1.134-.795 2.522-.795 4.166 0 1.65.269 3.046.805 4.186.537 1.14 1.273 2.006 2.208 2.596.935.59 1.998.884 3.192.884 1.107 0 2.071-.225 2.893-.676a4.71 4.71 0 0 0 1.919-1.909c.458-.828.686-1.803.686-2.923l.796.15h-5.827v-2.537h8.004v2.317c0 1.71-.364 3.195-1.094 4.455a7.445 7.445 0 0 1-3.002 2.903c-1.273.683-2.731 1.024-4.375 1.024-1.843 0-3.461-.424-4.853-1.272-1.385-.849-2.466-2.052-3.241-3.61-.776-1.564-1.163-3.42-1.163-5.568 0-1.624.225-3.082.676-4.375.45-1.292 1.084-2.39 1.899-3.291a8.29 8.29 0 0 1 2.893-2.078c1.114-.484 2.33-.726 3.649-.726 1.101 0 2.125.162 3.073.487a8.285 8.285 0 0 1 2.545 1.382 7.836 7.836 0 0 1 2.854 4.843h-3.152Zm13.386 14.238c-1.432 0-2.681-.328-3.749-.984-1.067-.656-1.895-1.575-2.485-2.754-.59-1.18-.885-2.56-.885-4.137 0-1.584.295-2.97.885-4.156.59-1.187 1.418-2.108 2.485-2.764 1.068-.656 2.317-.985 3.749-.985s2.681.329 3.749.985c1.067.656 1.895 1.577 2.485 2.764.59 1.187.885 2.572.885 4.156 0 1.578-.295 2.957-.885 4.137-.59 1.18-1.418 2.098-2.485 2.754-1.068.656-2.317.984-3.749.984Zm.01-2.495c.928 0 1.697-.246 2.307-.736.61-.49 1.06-1.144 1.352-1.96.298-.814.448-1.713.448-2.694 0-.974-.15-1.869-.448-2.684-.292-.822-.742-1.482-1.352-1.98-.61-.496-1.379-.745-2.307-.745-.935 0-1.71.249-2.327.746-.61.497-1.064 1.157-1.362 1.979-.292.815-.437 1.71-.437 2.684 0 .981.145 1.88.437 2.695.298.815.752 1.468 1.362 1.959.617.49 1.392.735 2.327.735Z" />
</svg>